# xmcd CD database file
#
# Track frame offsets:
#	150
#	23947
#	48557
#	72527
#	89666
#	117613
#	145978
#	170869
#	188911
#	214376
#
# Disc length: 3300 seconds
#
# Revision: 0
# Processed by: cddbd v1.5.2PL0 Copyright (c) Steve Scherf et al.
# Submitted via: CDex 1.70beta2
#
DISCID=a80ce20a
DTITLE=Shirley Scott - Six Classic Albums [CD3)
DYEAR=1900
DGENRE=Jazz
TTITLE0=Hip twist
TTITLE1=At last
TTITLE2=Rippin' an' runnin'
TTITLE3=The very thought of you
TTITLE4=Violent blues
TTITLE5=That's all
TTITLE6=All tore down
TTITLE7=Senor Blues
TTITLE8=Moonray
TTITLE9=Sister Sadie
EXTD=
EXTT0=
EXTT1=
EXTT2=
EXTT3=
EXTT4=
EXTT5=
EXTT6=
EXTT7=
EXTT8=
EXTT9=
PLAYORDER=
